# xmcd
#
# Track frame offsets: 
#        150
#        17804
#        35916
#        54283
#        70750
#        94054
#        114668
#        130647
#        151093
#        167242
#        188044
#        198911
#        214770
#        241082
#        254089
#
# Disc length: 3709 seconds
#
# Revision: 0
# Processed by: cddbd v1.5.2PL0 Copyright (c) Steve Scherf et al.
# Submitted via: ExactAudioCopy v1.0b1
#
DISCID=cb0e7b0f
DTITLE=The Hoodoo Loungers - Hoodoo Lounge
DYEAR=2013
DGENRE=Blues
TTITLE0=Hoodoo Lounge
TTITLE1=Put More Rum In Your Boogie
TTITLE2=Like Its Fat Tuesday
TTITLE3=Didn't He Ramble
TTITLE4=I Put A Spell On You
TTITLE5=Do The Crawfish
TTITLE6=When I'm Through With You
TTITLE7=Let's Mess Around
TTITLE8=There'll Be Some Changes Made
TTITLE9=Tootie Ma
TTITLE10=I Want You To Be My Baby
TTITLE11=Everytime I Hear That Mellow Saxophone
TTITLE12=St James Infirmary
TTITLE13=Stagger Lee
TTITLE14=Gloryland
EXTD=
EXTT0=
EXTT1=
EXTT2=
EXTT3=
EXTT4=
EXTT5=
EXTT6=
EXTT7=
EXTT8=
EXTT9=
EXTT10=
EXTT11=
EXTT12=
EXTT13=
EXTT14=
PLAYORDER=
